0
SECTION
2
HEADER
9
$INSUNITS
70
4
9
$ACADVER
1
AC1014
9
$HANDSEED
5
FFFF
0
ENDSEC
0
SECTION
2
TABLES
0
TABLE
2
VPORT
5
8
100
AcDbSymbolTable
0
ENDTAB
0
TABLE
2
LTYPE
5
5
100
AcDbSymbolTable
0
LTYPE
5
14
100
AcDbSymbolTableRecord
100
AcDbLinetypeTableRecord
2
BYBLOCK
70
0
0
LTYPE
5
15
100
AcDbSymbolTableRecord
100
AcDbLinetypeTableRecord
2
BYLAYER
70
0
0
LTYPE
5
16
100
AcDbSymbolTableRecord
100
AcDbLinetypeTableRecord
2
DASHED
70
0
3
Dashed __ __ __ __ __ __ __ __ __ __ __ __ __ _
72
65
73
2
40
0.75
49
0.5
74
0
49
-0.25
74
0
0
ENDTAB
0
TABLE
2
LAYER
5
2
100
AcDbSymbolTable
70
2
0
LAYER
5
50
100
AcDbSymbolTableRecord
100
AcDbLayerTableRecord
2
0
70
0
62
7
6
CONTINUOUS
0
ENDTAB
0
TABLE
2
STYLE
5
3
100
AcDbSymbolTable
70
1
0
STYLE
5
11
100
AcDbSymbolTableRecord
100
AcDbTextStyleTableRecord
2
STANDARD
70
0
0
ENDTAB
0
TABLE
2
VIEW
5
6
100
AcDbSymbolTable
70
0
0
ENDTAB
0
TABLE
2
UCS
5
7
100
AcDbSymbolTable
70
0
0
ENDTAB
0
TABLE
2
APPID
5
9
100
AcDbSymbolTable
70
2
0
APPID
5
12
100
AcDbSymbolTableRecord
100
AcDbRegAppTableRecord
2
ACAD
70
0
0
ENDTAB
0
TABLE
2
DIMSTYLE
5
A
100
AcDbSymbolTable
70
1
0
ENDTAB
0
TABLE
2
BLOCK_RECORD
5
1
100
AcDbSymbolTable
70
1
0
BLOCK_RECORD
5
1F
100
AcDbSymbolTableRecord
100
AcDbBlockTableRecord
2
*MODEL_SPACE
0
BLOCK_RECORD
5
1B
100
AcDbSymbolTableRecord
100
AcDbBlockTableRecord
2
*PAPER_SPACE
0
ENDTAB
0
ENDSEC
0
SECTION
2
BLOCKS
0
BLOCK
5
20
100
AcDbEntity
100
AcDbBlockBegin
2
*MODEL_SPACE
0
ENDBLK
5
21
100
AcDbEntity
100
AcDbBlockEnd
0
BLOCK
5
1C
100
AcDbEntity
100
AcDbBlockBegin
2
*PAPER_SPACE
0
ENDBLK
5
1D
100
AcDbEntity
100
AcDbBlockEnd
0
ENDSEC
0
SECTION
2
ENTITIES
0
ARC
5
100
100
AcDbEntity
8
0
100
AcDbCircle
10
-68.210677939760998
20
-44.253120582009295
30
0
40
2.6000000000000121
210
0
220
0
230
1
100
AcDbArc
50
-96.388975501001994
51
151.18589061309851
0
LINE
5
101
100
AcDbEntity
8
0
100
AcDbLine
10
-68.5
20
-46.836972889216327
30
0
11
-68.500000000000014
21
-51.000000000000007
31
0
0
LINE
5
102
100
AcDbEntity
8
0
100
AcDbLine
10
-68.500000000000014
20
-51.000000000000007
30
0
11
-52
21
-51.000000000000007
31
0
0
LINE
5
103
100
AcDbEntity
8
0
100
AcDbLine
10
-52
20
-51.000000000000007
30
0
11
-52
21
-55.000000000000007
31
0
0
LINE
5
104
100
AcDbEntity
8
0
100
AcDbLine
10
-52
20
-55.000000000000007
30
0
11
-32
21
-55.000000000000007
31
0
0
LINE
5
105
100
AcDbEntity
8
0
100
AcDbLine
10
-32
20
-55.000000000000007
30
0
11
-32
21
-53.000000000000007
31
0
0
LINE
5
106
100
AcDbEntity
8
0
100
AcDbLine
10
-32
20
-53.000000000000007
30
0
11
-16.317072107175608
21
-53.000000000000007
31
0
0
ARC
5
107
100
AcDbEntity
8
0
100
AcDbCircle
10
-13.855521933485486
20
-52.162879493498018
30
0
40
2.6000000000000023
210
0
220
-0
230
1
100
AcDbArc
50
26.568109899123648
51
198.78206928636268
0
LINE
5
108
100
AcDbEntity
8
0
100
AcDbLine
10
-11.530073313626982
20
-51.000000000000007
30
0
11
0
21
-51.000000000000007
31
0
0
LINE
5
109
100
AcDbEntity
8
0
100
AcDbLine
10
0
20
-51.000000000000007
30
0
11
4.7213818315172e-33
21
-1.0109976445855828
31
0
0
ARC
5
110
100
AcDbEntity
8
0
100
AcDbCircle
10
-1.3324789982640568
20
1.2216016744112759
30
0
40
2.6000000000000019
210
0
220
0
230
1
100
AcDbArc
50
208.02435231259588
51
300.82995845723934
0
LINE
5
111
100
AcDbEntity
8
0
100
AcDbLine
10
-3.6276237320609424
20
1.3877787807814457e-16
30
0
11
-36.920000759959223
21
-1.9259299443872359e-32
31
0
0
LINE
5
112
100
AcDbEntity
8
0
100
AcDbLine
10
-36.920000759959223
20
-1.9259299443872359e-32
30
0
11
-36.920000759959223
21
-6
31
0
0
LINE
5
113
100
AcDbEntity
8
0
100
AcDbLine
10
-49
20
-6.0000000000000009
30
0
11
-50.000000000000014
21
-6.0000001043081284
31
0
0
LINE
5
114
100
AcDbEntity
8
0
100
AcDbLine
10
-52.000000759959221
20
-1.9999999999999973
30
0
11
-52.000000759959221
21
-1.0430812769079978e-07
31
0
0
LINE
5
115
100
AcDbEntity
8
0
100
AcDbLine
10
-52.000000759959221
20
-1.0430812769079978e-07
30
0
11
-62.5
21
0
31
0
0
LINE
5
116
100
AcDbEntity
8
0
100
AcDbLine
10
-62.5
20
0
30
0
11
-62.5
21
19.748118882369923
31
0
0
ARC
5
117
100
AcDbEntity
8
0
100
AcDbCircle
10
-62.842183893850255
20
22.325503250831382
30
0
40
2.5999999999999979
210
0
220
0
230
1
100
AcDbArc
50
139.90647279873031
51
277.56259114944032
0
LINE
5
118
100
AcDbEntity
8
0
100
AcDbLine
10
-64.831168719590181
20
24.000000000000004
30
0
11
-83
21
24.000000000000004
31
0
0
LINE
5
119
100
AcDbEntity
8
0
100
AcDbLine
10
-83
20
24.000000000000004
30
0
11
-83
21
-43.000000000000007
31
0
0
LINE
5
120
100
AcDbEntity
8
0
100
AcDbLine
10
-83
20
-43.000000000000007
30
0
11
-70.488766789420893
21
-43.000000000000007
31
0
0
LINE
5
121
100
AcDbEntity
8
0
100
AcDbLine
10
-50.000000000000014
20
-6.0000001043081284
30
0
11
-50.000000000000014
21
-1.9999999999999973
31
0
0
LINE
5
122
100
AcDbEntity
8
0
100
AcDbLine
10
-49
20
-6.0000000000000009
30
0
11
-36.920000759959223
21
-6
31
0
0
LINE
5
123
100
AcDbEntity
8
0
100
AcDbLine
10
-50.000000000000014
20
-1.9999999999999973
30
0
11
-52.000000759959221
21
-1.9999999999999973
31
0
0
CIRCLE
5
124
100
AcDbEntity
8
0
100
AcDbCircle
10
-9.5
20
-41.5
30
0
40
2.7500000000000009
210
0
220
0
230
1
0
CIRCLE
5
125
100
AcDbEntity
8
0
100
AcDbCircle
10
-9.5
20
-25.5
30
0
40
2.7500000000000018
210
0
220
0
230
1
0
CIRCLE
5
126
100
AcDbEntity
8
0
100
AcDbCircle
10
-9.5
20
-9.5
30
0
40
2.7499999999999991
210
0
220
0
230
1
0
CIRCLE
5
127
100
AcDbEntity
8
0
100
AcDbCircle
10
-25.500000134110454
20
-11.500000000000004
30
0
40
2.7499999999999991
210
0
220
0
230
1
0
CIRCLE
5
128
100
AcDbEntity
8
0
100
AcDbCircle
10
-25.500000134110454
20
-27.5
30
0
40
2.7499999999999982
210
0
220
0
230
1
0
CIRCLE
5
129
100
AcDbEntity
8
0
100
AcDbCircle
10
-25.500000000000004
20
-43.500000000000007
30
0
40
2.7500000000000036
210
0
220
0
230
1
0
CIRCLE
5
130
100
AcDbEntity
8
0
100
AcDbCircle
10
-41.5
20
-45.500000000000007
30
0
40
2.7500000000000036
210
0
220
0
230
1
0
CIRCLE
5
131
100
AcDbEntity
8
0
100
AcDbCircle
10
-41.5
20
-29.5
30
0
40
2.7499999999999987
210
0
220
0
230
1
0
CIRCLE
5
132
100
AcDbEntity
8
0
100
AcDbCircle
10
-41.5
20
-13.5
30
0
40
2.7499999999999991
210
0
220
0
230
1
0
CIRCLE
5
133
100
AcDbEntity
8
0
100
AcDbCircle
10
-57.500000000000014
20
-41.499999999999993
30
0
40
2.75
210
0
220
0
230
1
0
CIRCLE
5
134
100
AcDbEntity
8
0
100
AcDbCircle
10
-57.500000000000014
20
-25.5
30
0
40
2.7500000000000013
210
0
220
0
230
1
0
CIRCLE
5
135
100
AcDbEntity
8
0
100
AcDbCircle
10
-57.500000000000014
20
-9.4999999999999964
30
0
40
2.7500000000000013
210
0
220
0
230
1
0
CIRCLE
5
136
100
AcDbEntity
8
0
100
AcDbCircle
10
-73.500000000000028
20
-33.500000000000007
30
0
40
2.7499999999999991
210
0
220
0
230
1
0
CIRCLE
5
137
100
AcDbEntity
8
0
100
AcDbCircle
10
-73.500000000000028
20
-17.5
30
0
40
2.7499999999999991
210
0
220
0
230
1
0
CIRCLE
5
138
100
AcDbEntity
8
0
100
AcDbCircle
10
-73.500000000000028
20
-1.5000000000000036
30
0
40
2.7499999999999996
210
0
220
0
230
1
0
CIRCLE
5
139
100
AcDbEntity
8
0
100
AcDbCircle
10
-73.500000000000028
20
14.499999999999996
30
0
40
2.7499999999999991
210
0
220
0
230
1
0
ENDSEC
0
SECTION
2
OBJECTS
0
DICTIONARY
5
C
100
AcDbDictionary
3
ACAD_GROUP
350
D
3
ACAD_MLINESTYLE
350
17
0
DICTIONARY
5
D
100
AcDbDictionary
0
DICTIONARY
5
1A
330
C
100
AcDbDictionary
0
DICTIONARY
5
17
100
AcDbDictionary
0
ENDSEC
0
EOF
