0
SECTION
2
HEADER
9
$INSUNITS
70
4
9
$ACADVER
1
AC1014
9
$HANDSEED
5
FFFF
0
ENDSEC
0
SECTION
2
TABLES
0
TABLE
2
VPORT
5
8
100
AcDbSymbolTable
0
ENDTAB
0
TABLE
2
LTYPE
5
5
100
AcDbSymbolTable
0
LTYPE
5
14
100
AcDbSymbolTableRecord
100
AcDbLinetypeTableRecord
2
BYBLOCK
70
0
0
LTYPE
5
15
100
AcDbSymbolTableRecord
100
AcDbLinetypeTableRecord
2
BYLAYER
70
0
0
LTYPE
5
16
100
AcDbSymbolTableRecord
100
AcDbLinetypeTableRecord
2
DASHED
70
0
3
Dashed __ __ __ __ __ __ __ __ __ __ __ __ __ _
72
65
73
2
40
0.75
49
0.5
74
0
49
-0.25
74
0
0
ENDTAB
0
TABLE
2
LAYER
5
2
100
AcDbSymbolTable
70
2
0
LAYER
5
50
100
AcDbSymbolTableRecord
100
AcDbLayerTableRecord
2
0
70
0
62
7
6
CONTINUOUS
0
ENDTAB
0
TABLE
2
STYLE
5
3
100
AcDbSymbolTable
70
1
0
STYLE
5
11
100
AcDbSymbolTableRecord
100
AcDbTextStyleTableRecord
2
STANDARD
70
0
0
ENDTAB
0
TABLE
2
VIEW
5
6
100
AcDbSymbolTable
70
0
0
ENDTAB
0
TABLE
2
UCS
5
7
100
AcDbSymbolTable
70
0
0
ENDTAB
0
TABLE
2
APPID
5
9
100
AcDbSymbolTable
70
2
0
APPID
5
12
100
AcDbSymbolTableRecord
100
AcDbRegAppTableRecord
2
ACAD
70
0
0
ENDTAB
0
TABLE
2
DIMSTYLE
5
A
100
AcDbSymbolTable
70
1
0
ENDTAB
0
TABLE
2
BLOCK_RECORD
5
1
100
AcDbSymbolTable
70
1
0
BLOCK_RECORD
5
1F
100
AcDbSymbolTableRecord
100
AcDbBlockTableRecord
2
*MODEL_SPACE
0
BLOCK_RECORD
5
1B
100
AcDbSymbolTableRecord
100
AcDbBlockTableRecord
2
*PAPER_SPACE
0
ENDTAB
0
ENDSEC
0
SECTION
2
BLOCKS
0
BLOCK
5
20
100
AcDbEntity
100
AcDbBlockBegin
2
*MODEL_SPACE
0
ENDBLK
5
21
100
AcDbEntity
100
AcDbBlockEnd
0
BLOCK
5
1C
100
AcDbEntity
100
AcDbBlockBegin
2
*PAPER_SPACE
0
ENDBLK
5
1D
100
AcDbEntity
100
AcDbBlockEnd
0
ENDSEC
0
SECTION
2
ENTITIES
0
LINE
5
100
100
AcDbEntity
8
0
100
AcDbLine
10
-26.031561600226812
20
20.762742460151962
30
0
11
-16.154678194275434
21
22.32708711055427
31
0
6
DASHED
0
LWPOLYLINE
5
101
100
AcDbEntity
8
0
100
AcDbPolyline
90
4
70
1
43
0.0
10
-14.000109770589923
20
38.838531982912158
10
-11.383626416241883
20
24.068494242390987
10
-26.153664156763053
20
21.452010888042953
10
-28.770147511111102
20
36.222048628564124
0
LWPOLYLINE
5
102
100
AcDbEntity
8
0
100
AcDbPolyline
90
4
70
1
43
0.0
10
2.4488475196502435
20
44.738742092203658
10
7.5790258854340919
20
30.643307727302265
10
-6.5164084794673061
20
25.513129361518409
10
-11.646586845251157
20
39.608563726419803
0
LWPOLYLINE
5
103
100
AcDbEntity
8
0
100
AcDbPolyline
90
4
70
1
43
0.0
10
24.856719132161015
20
39.695802364573105
10
11.689640551717574
20
32.510536770565622
10
4.5043749577100911
20
45.677615351009059
10
17.67145353815382
20
52.862880945016705
0
CIRCLE
5
104
100
AcDbEntity
8
0
100
AcDbCircle
10
17.027187967044817
20
5.9994397672933921
30
0
40
1.100000000000001
210
0
220
-0
230
1
0
CIRCLE
5
105
100
AcDbEntity
8
0
100
AcDbCircle
10
23.427187967047782
20
26.499439767292408
30
0
40
1.1000000000000032
210
0
220
-0
230
1
0
LINE
5
106
100
AcDbEntity
8
0
100
AcDbLine
10
28.927187967050397
20
0.9994397672924249
30
0
11
28.927187967050397
21
10.999439767292426
31
0
0
LINE
5
107
100
AcDbEntity
8
0
100
AcDbLine
10
8.9271879670504006
20
10.999439767292426
30
0
11
8.9271879670504006
21
23.499439767292422
31
0
0
LINE
5
108
100
AcDbEntity
8
0
100
AcDbLine
10
28.927187967050397
20
23.499439767292426
30
0
11
28.927187967050362
21
38.499439767292401
31
0
0
LINE
5
109
100
AcDbEntity
8
0
100
AcDbLine
10
28.927187967050362
20
38.499439767292401
30
0
11
18.867816135440542
21
56.933349779907026
31
0
0
LWPOLYLINE
5
110
100
AcDbEntity
8
0
100
AcDbPolyline
90
129
43
0.0
10
18.867816135440542
20
56.933349779907026
10
18.368930735739767
20
56.58858466526605
10
17.869900402382616
20
56.24713056920293
10
17.370725061528184
20
55.90898889541681
10
16.871404581688747
20
55.57416191021045
10
16.371938766805982
20
55.242652675159206
10
15.872327349327149
20
54.91446497978008
10
15.37256998328132
20
54.589603274197295
10
14.872666237356137
20
54.268072601373596
10
14.372615587977759
20
53.94987852686743
10
13.872417412393458
20
53.63502706653039
10
13.372070981754506
20
53.32352461397418
10
12.871575454199064
20
53.015377868037014
10
12.37092986793508
20
52.710593760250156
10
11.87013313433631
20
52.4091793819791
10
11.369184031231802
20
52.11114190677654
10
10.868081196531673
20
51.81648850441126
10
10.366823121942327
20
51.52522625268298
10
9.86540814668342
20
51.237362049194154
10
9.363834451204816
20
50.952902523121935
10
8.862100050901311
20
50.671853946994965
10
8.360202789711805
20
50.39422214872642
10
7.858140333284058
20
50.12001242461004
10
7.355910161889591
20
49.84922945286993
10
6.853509563321581
20
49.581877207248276
10
6.35093562579278
20
49.317958870592804
10
5.848185230833633
20
49.05747674844052
10
5.345255046304987
20
48.800432180609064
10
4.842141520434539
20
48.54682543498335
10
4.3388408770829665
20
48.29665557991726
10
3.835349111225934
20
48.04992035288043
10
3.331661984437788
20
47.806616029076004
10
2.8277750203752476
20
47.56673729005836
10
2.3236835001061285
20
47.330277094323826
10
1.8193824534088194
20
47.09722659919917
10
1.314866639843728
20
46.86757521294748
10
0.8101305257954744
20
46.64131069817184
10
0.30516826136012326
20
46.418419277192044
10
-0.2000263427675862
20
46.19888573742121
10
-0.7054598384093499
20
45.98269353676689
10
-1.2111391633197504
20
45.76982491218454
10
-1.7170716663190526
20
45.560261006185264
10
-2.223265133854957
20
45.35398200829152
10
-2.729727816724257
20
45.15096729816565
10
-3.2364684567948134
20
44.95119558874169
10
-3.7434963137275177
20
44.75464506935699
10
-4.250821191683816
20
44.561293548330205
10
-4.758453465820471
20
44.37111858738502
10
-5.266404108414496
20
44.18409762189892
10
-5.774684714889687
20
44.00020807738124
10
-6.283307529841269
20
43.81942748587833
10
-6.792285473060535
20
43.64173360237868
10
-7.301632165559193
20
43.46710452121088
10
-7.811361955578622
20
43.29551879207018
10
-8.321489944542428
20
43.126955534649376
10
-8.832032012976336
20
42.96139455246641
10
-9.343004846425911
20
42.79881644663773
10
-9.854425961374234
20
42.63920272965145
10
-10.366313731159847
20
42.482535939140185
10
-10.878687412010844
20
42.3287997514356
10
-11.391567170117192
20
42.17797909317271
10
-11.904974109950079
20
42.030060250551685
10
-12.418930302800186
20
41.88503097818838
10
-12.933458815317683
20
41.74288060796167
10
-13.448583738052193
20
41.603600157860825
10
-13.964330213075495
20
41.46718243918867
10
-14.48072443775466
20
41.33362212101937
10
-14.99779360798399
20
41.20291568614762
10
-15.51556583756744
20
41.075061344292436
10
-16.034070076683697
20
40.95005894365672
10
-16.55333603035131
20
40.82790988248696
10
-17.073394076889752
20
40.70861702062361
10
-17.594275185860628
20
40.592184589873725
10
-18.11601083304795
20
40.47861809767385
10
-18.63863291297326
20
40.367924225167386
10
-19.162173651134864
20
40.26011072465644
10
-19.68666551624655
20
40.15518631705271
10
-20.212141132476326
20
40.05316058932829
10
-20.738633191731964
20
39.9540438919645
10
-21.266174366636438
20
39.8578472363715
10
-21.794797224702506
20
39.76458219225712
10
-22.324534142826355
20
39.67426078498216
10
-22.85541722178736
20
39.586895392915466
10
-23.38747820074787
20
39.502498644788965
10
-23.920748371712122
20
39.42108331699327
10
-24.455258491872755
20
39.34266222779955
10
-24.991038688016182
20
39.267248120027
10
-25.528118356359872
20
39.194853537063125
10
-26.066526062079344
20
39.12549069843297
10
-26.606289438835187
20
39.05917137536805
10
-27.14743508830189
20
38.99590676637751
10
-27.689988480657668
20
38.93570737387885
10
-28.233973863661745
20
38.87858289029857
10
-28.77941418204604
20
38.824542095546974
10
-29.32633099871791
20
38.77359275649013
10
-29.874744415976874
20
38.725741526437204
10
-30.424672996731335
20
38.6809938446279
10
-30.976133687143346
20
38.63935383744355
10
-31.52914177640119
20
38.600824264435474
10
-32.08371095073955
20
38.565406578119955
10
-32.63985338458754
20
38.53310102859046
10
-33.197579833144744
20
38.50390676985356
10
-33.756899724957194
20
38.4778219661649
10
-34.31782125447621
20
38.45484389834262
10
-34.88035147239672
20
38.434969067182934
10
-35.444496363348904
20
38.41819328037071
10
-36.01026091306077
20
38.40451172564855
10
-36.577649174342305
20
38.39391904244812
10
-37.14666433306746
20
38.38640939351856
10
-37.71730877415615
20
38.381976536554824
10
-38.289584147587426
20
38.38061389581957
10
-38.86349143487337
20
38.38231463366928
10
-39.43903101633366
20
38.387071721913934
10
-40.016202738583075
20
38.39487801313243
10
-40.59500598202322
20
38.405726311987124
10
-41.17543972833415
20
38.41960944653839
10
-41.757502627942
20
38.43652033952378
10
-42.34119306624374
20
38.456452077810845
10
-42.92650922515945
20
38.479397974983584
10
-43.5134491419968
20
38.50535162997919
10
-44.10201076813302
20
38.534306985456546
10
-44.692192027696805
20
38.566258386164684
10
-45.283990876250066
20
38.60120063731077
10
-45.87740535936143
20
38.63912906269992
10
-46.47243367021306
20
38.68003956083568
10
-47.06907420604601
20
38.723928658570955
10
-47.667325624402025
20
38.77079356432893
10
-48.2671868993635
20
38.82063222132069
10
-48.86865737779355
20
38.87344336076271
0
ARC
5
111
100
AcDbEntity
8
0
100
AcDbCircle
10
149.83579140622925
20
6.4254190124494741
30
0
40
201.33636594185131
210
0
220
0
230
1
100
AcDbArc
50
170.72557778325427
51
175.80648365272299
0
LINE
5
112
100
AcDbEntity
8
0
100
AcDbLine
10
-50.961548471925759
20
21.148209119212076
30
0
11
-49.649980544620206
21
21.148209119212098
31
0
0
ARC
5
113
100
AcDbEntity
8
0
100
AcDbCircle
10
-48.025911044740212
20
19.24757810305994
30
0
40
2.5000000000000036
210
0
220
-0
230
1
100
AcDbArc
50
49.486454539121738
51
130.51354546087632
0
LINE
5
114
100
AcDbEntity
8
0
100
AcDbLine
10
-46.401841544860154
20
21.148209119212041
30
0
11
-46.170147511111104
21
21.14820911921203
31
0
0
LINE
5
115
100
AcDbEntity
8
0
100
AcDbLine
10
-46.170147511111104
20
21.14820911921203
30
0
11
-46.170147511111104
21
36.148209119212027
31
0
0
LINE
5
116
100
AcDbEntity
8
0
100
AcDbLine
10
-46.170147511111104
20
36.148209119212027
30
0
11
-31.170147511111104
21
36.148209119212027
31
0
0
LINE
5
117
100
AcDbEntity
8
0
100
AcDbLine
10
-31.170147511111104
20
36.148209119212027
30
0
11
-31.170147511111104
21
21.14820911921203
31
0
0
LINE
5
118
100
AcDbEntity
8
0
100
AcDbLine
10
-31.170147511111104
20
21.14820911921203
30
0
11
-31.872812032948914
21
21.14820911921203
31
0
0
LINE
5
119
100
AcDbEntity
8
0
100
AcDbLine
10
-31.872812032948914
20
21.14820911921203
30
0
11
-31.872812032949614
21
15.999439767292429
31
0
0
ARC
5
120
100
AcDbEntity
8
0
100
AcDbCircle
10
-36.543887434681295
20
122.01927907508298
30
0
40
106.12268971458644
210
-0
220
0
230
1
100
AcDbArc
50
272.52273477722201
51
292.53488064108137
0
LINE
5
121
100
AcDbEntity
8
0
100
AcDbLine
10
4.1271879670502498
20
23.999439767292543
30
0
11
4.1271879670503875
21
0.9994397672924249
31
0
0
LINE
5
122
100
AcDbEntity
8
0
100
AcDbLine
10
5.9771879670504511
20
-24.224942268769869
30
0
11
3.9771879670504511
21
-24.224942268769865
31
0
0
LINE
5
123
100
AcDbEntity
8
0
100
AcDbLine
10
4.1271879670503875
20
0.9994397672924249
30
0
11
4.1271879670503875
21
-24.224942268769865
31
0
0
LINE
5
124
100
AcDbEntity
8
0
100
AcDbLine
10
29.077187967050367
20
-24.224942268769865
30
0
11
27.077187967050364
21
-24.224942268769865
31
0
0
LINE
5
125
100
AcDbEntity
8
0
100
AcDbLine
10
28.927187967050397
20
0.9994397672924249
30
0
11
28.927187967050397
21
-24.224942268769865
31
0
0
LINE
5
126
100
AcDbEntity
8
0
100
AcDbLine
10
4.1271879670503875
20
-24.224942268769865
30
0
11
28.927187967050397
21
-24.224942268769865
31
0
0
LINE
5
127
100
AcDbEntity
8
0
100
AcDbLine
10
28.927187967050397
20
23.499439767292426
30
0
11
28.927187967050397
21
10.999439767292426
31
0
0
CIRCLE
5
128
100
AcDbEntity
8
0
100
AcDbCircle
10
14.680547044935697
20
42.68670885779116
30
0
40
2.7499999999999987
210
0
220
0
230
1
0
CIRCLE
5
129
100
AcDbEntity
8
0
100
AcDbCircle
10
-2.0337804799085326
20
35.125935726861037
30
0
40
2.7499999999999991
210
0
220
0
230
1
0
LINE
5
130
100
AcDbEntity
8
0
100
AcDbLine
10
-31.872812032948914
20
21.14820911921203
30
0
11
-46.170147511111104
21
21.14820911921203
31
0
0
CIRCLE
5
131
100
AcDbEntity
8
0
100
AcDbCircle
10
-38.670147511111104
20
28.64820911921203
30
0
40
2.7499999999999991
210
0
220
0
230
1
0
CIRCLE
5
132
100
AcDbEntity
8
0
100
AcDbCircle
10
-20.076886963676486
20
30.145271435477557
30
0
40
2.75
210
0
220
0
230
1
0
LINE
5
133
100
AcDbEntity
8
0
100
AcDbLine
10
-16.154678194275434
20
22.32708711055427
30
0
11
-26.031561600226812
21
20.762742460151962
31
0
0
ENDSEC
0
SECTION
2
OBJECTS
0
DICTIONARY
5
C
100
AcDbDictionary
3
ACAD_GROUP
350
D
3
ACAD_MLINESTYLE
350
17
0
DICTIONARY
5
D
100
AcDbDictionary
0
DICTIONARY
5
1A
330
C
100
AcDbDictionary
0
DICTIONARY
5
17
100
AcDbDictionary
0
ENDSEC
0
EOF
