0
SECTION
2
HEADER
9
$INSUNITS
70
4
9
$ACADVER
1
AC1014
9
$HANDSEED
5
FFFF
0
ENDSEC
0
SECTION
2
TABLES
0
TABLE
2
VPORT
5
8
100
AcDbSymbolTable
0
ENDTAB
0
TABLE
2
LTYPE
5
5
100
AcDbSymbolTable
0
LTYPE
5
14
100
AcDbSymbolTableRecord
100
AcDbLinetypeTableRecord
2
BYBLOCK
70
0
0
LTYPE
5
15
100
AcDbSymbolTableRecord
100
AcDbLinetypeTableRecord
2
BYLAYER
70
0
0
LTYPE
5
16
100
AcDbSymbolTableRecord
100
AcDbLinetypeTableRecord
2
DASHED
70
0
3
Dashed __ __ __ __ __ __ __ __ __ __ __ __ __ _
72
65
73
2
40
0.75
49
0.5
74
0
49
-0.25
74
0
0
ENDTAB
0
TABLE
2
LAYER
5
2
100
AcDbSymbolTable
70
2
0
LAYER
5
50
100
AcDbSymbolTableRecord
100
AcDbLayerTableRecord
2
0
70
0
62
7
6
CONTINUOUS
0
ENDTAB
0
TABLE
2
STYLE
5
3
100
AcDbSymbolTable
70
1
0
STYLE
5
11
100
AcDbSymbolTableRecord
100
AcDbTextStyleTableRecord
2
STANDARD
70
0
0
ENDTAB
0
TABLE
2
VIEW
5
6
100
AcDbSymbolTable
70
0
0
ENDTAB
0
TABLE
2
UCS
5
7
100
AcDbSymbolTable
70
0
0
ENDTAB
0
TABLE
2
APPID
5
9
100
AcDbSymbolTable
70
2
0
APPID
5
12
100
AcDbSymbolTableRecord
100
AcDbRegAppTableRecord
2
ACAD
70
0
0
ENDTAB
0
TABLE
2
DIMSTYLE
5
A
100
AcDbSymbolTable
70
1
0
ENDTAB
0
TABLE
2
BLOCK_RECORD
5
1
100
AcDbSymbolTable
70
1
0
BLOCK_RECORD
5
1F
100
AcDbSymbolTableRecord
100
AcDbBlockTableRecord
2
*MODEL_SPACE
0
BLOCK_RECORD
5
1B
100
AcDbSymbolTableRecord
100
AcDbBlockTableRecord
2
*PAPER_SPACE
0
ENDTAB
0
ENDSEC
0
SECTION
2
BLOCKS
0
BLOCK
5
20
100
AcDbEntity
100
AcDbBlockBegin
2
*MODEL_SPACE
0
ENDBLK
5
21
100
AcDbEntity
100
AcDbBlockEnd
0
BLOCK
5
1C
100
AcDbEntity
100
AcDbBlockBegin
2
*PAPER_SPACE
0
ENDBLK
5
1D
100
AcDbEntity
100
AcDbBlockEnd
0
ENDSEC
0
SECTION
2
ENTITIES
0
ARC
5
100
100
AcDbEntity
8
0
100
AcDbCircle
10
-15.308923434726058
20
51.706871002229491
30
0
40
2.2000000000000037
210
0
220
0
230
1
100
AcDbArc
50
143.9999535563208
51
341.25813581742869
0
LINE
5
101
100
AcDbEntity
8
0
100
AcDbLine
10
-17.088759774147476
20
53.000000000000007
30
0
11
-32
21
53.000000000000007
31
0
0
LINE
5
102
100
AcDbEntity
8
0
100
AcDbLine
10
-32
20
53.000000000000007
30
0
11
-32
21
55.000000000000007
31
0
0
LINE
5
103
100
AcDbEntity
8
0
100
AcDbLine
10
-32
20
55.000000000000007
30
0
11
-51.999999999999993
21
55.000000000000057
31
0
0
LINE
5
104
100
AcDbEntity
8
0
100
AcDbLine
10
-51.999999999999993
20
55.000000000000057
30
0
11
-51.999999999999993
21
51.00000000000005
31
0
0
LINE
5
105
100
AcDbEntity
8
0
100
AcDbLine
10
-51.999999999999993
20
51.00000000000005
30
0
11
-68.5
21
51.00000000000005
31
0
0
LINE
5
106
100
AcDbEntity
8
0
100
AcDbLine
10
-68.5
20
51.00000000000005
30
0
11
-68.5
21
45.78463188318797
31
0
0
ARC
5
107
100
AcDbEntity
8
0
100
AcDbCircle
10
-67.722754734559047
20
43.72650414241248
30
0
40
2.1999999999999993
210
0
220
0
230
1
100
AcDbArc
50
-160.71731510846314
51
110.68888103509181
0
LINE
5
108
100
AcDbEntity
8
0
100
AcDbLine
10
-69.799336476522882
20
43.000000000000043
30
0
11
-83
21
43
31
0
0
LINE
5
109
100
AcDbEntity
8
0
100
AcDbLine
10
-83
20
43
30
0
11
-83
21
-8.0000000000000071
31
0
0
LINE
5
110
100
AcDbEntity
8
0
100
AcDbLine
10
-83
20
-8.0000000000000071
30
0
11
-65.357898491821274
21
-8.0000000000000568
31
0
0
ARC
5
111
100
AcDbEntity
8
0
100
AcDbCircle
10
-63.366072123509781
20
-7.0658545517432012
30
0
40
2.2000000000000002
210
0
220
-0
230
1
100
AcDbArc
50
66.817002010712386
51
205.12607937380542
0
LINE
5
112
100
AcDbEntity
8
0
100
AcDbLine
10
-62.500000000000007
20
-5.0434997171804667
30
0
11
-62.499999999999993
21
-6.4392935428259079e-14
31
0
0
LINE
5
113
100
AcDbEntity
8
0
100
AcDbLine
10
-62.499999999999993
20
-6.4392935428259079e-14
30
0
11
-47.200000759959224
21
-1.4710455076283324e-14
31
0
0
LINE
5
114
100
AcDbEntity
8
0
100
AcDbLine
10
-47.200000759959224
20
-1.4710455076283324e-14
30
0
11
-47.200000759959224
21
6.0000000000000124
31
0
0
LINE
5
115
100
AcDbEntity
8
0
100
AcDbLine
10
-34.400000759959219
20
6.0000000000000124
30
0
11
-34.400000759959219
21
5.6621374255882984e-14
31
0
0
LINE
5
116
100
AcDbEntity
8
0
100
AcDbLine
10
-34.400000759959219
20
5.6621374255882984e-14
30
0
11
-3.1517669180868735
21
-1.471045507628333e-14
31
0
0
ARC
5
117
100
AcDbEntity
8
0
100
AcDbCircle
10
-1.0544416835898587
20
-0.66424909540175792
30
0
40
2.1999999999999993
210
0
220
-0
230
1
100
AcDbArc
50
61.360849634024426
51
162.4263551010034
0
LINE
5
118
100
AcDbEntity
8
0
100
AcDbLine
10
4.163336342344337e-16
20
1.266593398409734
30
0
11
5.3926038442842604e-32
21
51.000000000000007
31
0
0
LINE
5
119
100
AcDbEntity
8
0
100
AcDbLine
10
5.3926038442842604e-32
20
51.000000000000007
30
0
11
-13.225576755412439
21
51.000000000000007
31
0
0
LINE
5
120
100
AcDbEntity
8
0
100
AcDbLine
10
-47.200000759959224
20
6.0000000000000124
30
0
11
-34.400000759959219
21
6.0000000000000124
31
0
0
CIRCLE
5
121
100
AcDbEntity
8
0
100
AcDbCircle
10
-73.5
20
33.5
30
0
40
2.4999999999999991
210
0
220
0
230
1
0
CIRCLE
5
122
100
AcDbEntity
8
0
100
AcDbCircle
10
-73.5
20
17.500000000000004
30
0
40
2.5000000000000009
210
0
220
0
230
1
0
CIRCLE
5
123
100
AcDbEntity
8
0
100
AcDbCircle
10
-73.5
20
1.5000000000000069
30
0
40
2.5000000000000009
210
0
220
0
230
1
0
CIRCLE
5
124
100
AcDbEntity
8
0
100
AcDbCircle
10
-57.5
20
9.5000000000000036
30
0
40
2.5000000000000022
210
0
220
0
230
1
0
CIRCLE
5
125
100
AcDbEntity
8
0
100
AcDbCircle
10
-57.5
20
25.500000000000004
30
0
40
2.5
210
0
220
0
230
1
0
CIRCLE
5
126
100
AcDbEntity
8
0
100
AcDbCircle
10
-57.5
20
41.5
30
0
40
2.5
210
0
220
0
230
1
0
CIRCLE
5
127
100
AcDbEntity
8
0
100
AcDbCircle
10
-41.5
20
45.500000000000007
30
0
40
2.5
210
0
220
0
230
1
0
CIRCLE
5
128
100
AcDbEntity
8
0
100
AcDbCircle
10
-41.5
20
29.500000000000011
30
0
40
2.5
210
0
220
0
230
1
0
CIRCLE
5
129
100
AcDbEntity
8
0
100
AcDbCircle
10
-41.5
20
13.500000000000014
30
0
40
2.5000000000000009
210
0
220
0
230
1
0
CIRCLE
5
130
100
AcDbEntity
8
0
100
AcDbCircle
10
-25.5
20
11.500000000000004
30
0
40
2.4999999999999996
210
0
220
0
230
1
0
CIRCLE
5
131
100
AcDbEntity
8
0
100
AcDbCircle
10
-9.5
20
9.5000000000000018
30
0
40
2.4999999999999996
210
0
220
0
230
1
0
CIRCLE
5
132
100
AcDbEntity
8
0
100
AcDbCircle
10
-9.5
20
25.500000000000004
30
0
40
2.4999999999999991
210
0
220
0
230
1
0
CIRCLE
5
133
100
AcDbEntity
8
0
100
AcDbCircle
10
-25.5
20
27.5
30
0
40
2.5000000000000009
210
0
220
0
230
1
0
CIRCLE
5
134
100
AcDbEntity
8
0
100
AcDbCircle
10
-25.5
20
43.500000000000007
30
0
40
2.5
210
0
220
0
230
1
0
CIRCLE
5
135
100
AcDbEntity
8
0
100
AcDbCircle
10
-9.5
20
41.5
30
0
40
2.5
210
0
220
0
230
1
0
ENDSEC
0
SECTION
2
OBJECTS
0
DICTIONARY
5
C
100
AcDbDictionary
3
ACAD_GROUP
350
D
3
ACAD_MLINESTYLE
350
17
0
DICTIONARY
5
D
100
AcDbDictionary
0
DICTIONARY
5
1A
330
C
100
AcDbDictionary
0
DICTIONARY
5
17
100
AcDbDictionary
0
ENDSEC
0
EOF
