0
SECTION
2
HEADER
9
$INSUNITS
70
4
9
$ACADVER
1
AC1014
9
$HANDSEED
5
FFFF
0
ENDSEC
0
SECTION
2
TABLES
0
TABLE
2
VPORT
5
8
100
AcDbSymbolTable
0
ENDTAB
0
TABLE
2
LTYPE
5
5
100
AcDbSymbolTable
0
LTYPE
5
14
100
AcDbSymbolTableRecord
100
AcDbLinetypeTableRecord
2
BYBLOCK
70
0
0
LTYPE
5
15
100
AcDbSymbolTableRecord
100
AcDbLinetypeTableRecord
2
BYLAYER
70
0
0
LTYPE
5
16
100
AcDbSymbolTableRecord
100
AcDbLinetypeTableRecord
2
DASHED
70
0
3
Dashed __ __ __ __ __ __ __ __ __ __ __ __ __ _
72
65
73
2
40
0.75
49
0.5
74
0
49
-0.25
74
0
0
ENDTAB
0
TABLE
2
LAYER
5
2
100
AcDbSymbolTable
70
2
0
LAYER
5
50
100
AcDbSymbolTableRecord
100
AcDbLayerTableRecord
2
0
70
0
62
7
6
CONTINUOUS
0
ENDTAB
0
TABLE
2
STYLE
5
3
100
AcDbSymbolTable
70
1
0
STYLE
5
11
100
AcDbSymbolTableRecord
100
AcDbTextStyleTableRecord
2
STANDARD
70
0
0
ENDTAB
0
TABLE
2
VIEW
5
6
100
AcDbSymbolTable
70
0
0
ENDTAB
0
TABLE
2
UCS
5
7
100
AcDbSymbolTable
70
0
0
ENDTAB
0
TABLE
2
APPID
5
9
100
AcDbSymbolTable
70
2
0
APPID
5
12
100
AcDbSymbolTableRecord
100
AcDbRegAppTableRecord
2
ACAD
70
0
0
ENDTAB
0
TABLE
2
DIMSTYLE
5
A
100
AcDbSymbolTable
70
1
0
ENDTAB
0
TABLE
2
BLOCK_RECORD
5
1
100
AcDbSymbolTable
70
1
0
BLOCK_RECORD
5
1F
100
AcDbSymbolTableRecord
100
AcDbBlockTableRecord
2
*MODEL_SPACE
0
BLOCK_RECORD
5
1B
100
AcDbSymbolTableRecord
100
AcDbBlockTableRecord
2
*PAPER_SPACE
0
ENDTAB
0
ENDSEC
0
SECTION
2
BLOCKS
0
BLOCK
5
20
100
AcDbEntity
100
AcDbBlockBegin
2
*MODEL_SPACE
0
ENDBLK
5
21
100
AcDbEntity
100
AcDbBlockEnd
0
BLOCK
5
1C
100
AcDbEntity
100
AcDbBlockBegin
2
*PAPER_SPACE
0
ENDBLK
5
1D
100
AcDbEntity
100
AcDbBlockEnd
0
ENDSEC
0
SECTION
2
ENTITIES
0
CIRCLE
5
100
100
AcDbEntity
8
0
100
AcDbCircle
10
-12.090311843559526
20
-76.295708855089146
30
0
40
1.100000000000001
210
0
220
-0
230
1
0
CIRCLE
5
101
100
AcDbEntity
8
0
100
AcDbCircle
10
-17.469391586202313
20
-56.695907808160719
30
0
40
1.100000000000001
210
0
220
-0
230
1
0
CIRCLE
5
102
100
AcDbEntity
8
0
100
AcDbCircle
10
-74.874937696760099
20
-78.49127231078954
30
0
40
2.5
210
0
220
-0
230
1
0
CIRCLE
5
103
100
AcDbEntity
8
0
100
AcDbCircle
10
-55.739274180270968
20
-80.287318679805182
30
0
40
2.5
210
0
220
-0
230
1
0
LWPOLYLINE
5
104
100
AcDbEntity
8
0
100
AcDbPolyline
90
4
70
1
43
0.0
10
-23.069391586202293
20
-61.69590780815664
10
-6.0693915862023129
20
-61.695907808156562
10
-6.0693915862026415
20
-74.19590780815706
10
-23.069391586202332
20
-74.195907808156619
0
CIRCLE
5
105
100
AcDbEntity
8
0
100
AcDbCircle
10
-37.232419511440924
20
-85.534726307312141
30
0
40
2.4999999999999956
210
0
220
-0
230
1
0
CIRCLE
5
106
100
AcDbEntity
8
0
100
AcDbCircle
10
-19.912658325913746
20
-93.905199951626031
30
0
40
2.5000000000000044
210
0
220
-0
230
1
0
LINE
5
107
100
AcDbEntity
8
0
100
AcDbLine
10
-5.0693915861983019
20
-89.195907808151162
30
0
11
-5.0693915862023609
21
-28.41190780815662
31
0
0
LINE
5
108
100
AcDbEntity
8
0
100
AcDbLine
10
-5.0693915862023609
20
-28.41190780815662
30
0
11
-29.869391586202365
21
-28.41190780815662
31
0
0
LINE
5
109
100
AcDbEntity
8
0
100
AcDbLine
10
-29.869391586202365
20
-28.41190780815662
30
0
11
-29.869391586202376
21
-75.135602406619043
31
0
0
ARC
5
110
100
AcDbEntity
8
0
100
AcDbCircle
10
-73.685411719313777
20
-181.32130397259903
30
0
40
114.87056558302734
210
0
220
-0
230
1
100
AcDbArc
50
67.577204320135536
51
87.587367408901073
0
LINE
5
111
100
AcDbEntity
8
0
100
AcDbLine
10
-68.84982732657177
20
-66.552562753810491
30
0
11
-69.549826260414207
21
-66.551341024030407
31
0
0
ARC
5
112
100
AcDbEntity
8
0
100
AcDbCircle
10
-84.70872629471333
20
-69.377646694563055
30
0
40
2.2000000000000117
210
0
220
0
230
1
100
AcDbArc
50
220.26394499207831
51
319.51975749281684
0
ARC
5
113
100
AcDbEntity
8
0
100
AcDbCircle
10
157.97288501471283
20
-50.58486733223269
30
0
40
246.33859026732767
210
0
220
0
230
1
100
AcDbArc
50
184.70650602162328
51
188.82746739446131
0
SPLINE
5
114
100
AcDbEntity
8
0
100
AcDbSpline
70
4
71
5
72
36
73
30
74
0
42
0.000000001
43
0.0000000001
44
0.0000000001
40
-1
40
-1
40
-1
40
-1
40
-1
40
-1
40
-0.9600000000000003
40
-0.92000000000000026
40
-0.88000000000000023
40
-0.84000000000000019
40
-0.80000000000000016
40
-0.76000000000000012
40
-0.72000000000000008
40
-0.68000000000000005
40
-0.64000000000000001
40
-0.59999999999999998
40
-0.55999999999999994
40
-0.51999999999999991
40
-0.47999999999999993
40
-0.43999999999999995
40
-0.39999999999999997
40
-0.35999999999999999
40
-0.32000000000000001
40
-0.28000000000000003
40
-0.24000000000000002
40
-0.20000000000000001
40
-0.16
40
-0.12
40
-0.080000000000000002
40
-0.040000000000000001
40
0
40
0
40
0
40
0
40
0
40
0
41
1
41
1
41
1
41
1
41
1
41
1
41
1
41
1
41
1
41
1
41
1
41
1
41
1
41
1
41
1
41
1
41
1
41
1
41
1
41
1
41
1
41
1
41
1
41
1
41
1
41
1
41
1
41
1
41
1
41
1
10
-85.447806673511778
20
-88.387881933195786
30
0
10
-85.080243750810297
20
-88.315761920510624
30
0
10
-84.316260603766409
20
-88.179865678683328
30
0
10
-83.083716804304117
20
-88.001048721392863
30
0
10
-81.266710563708131
20
-87.812845709897857
30
0
10
-78.710062123563873
20
-87.662424952696597
30
0
10
-75.884131568133711
20
-87.599545191846772
30
0
10
-72.825619250935105
20
-87.627488477010843
30
0
10
-69.597869278091338
20
-87.753254133509685
30
0
10
-66.268667328594589
20
-87.991114997961233
30
0
10
-62.905643217181655
20
-88.354718922672333
30
0
10
-59.564993498278511
20
-88.849208531789088
30
0
10
-56.286766667716179
20
-89.470613994286936
30
0
10
-53.077875919958082
20
-90.184268104980205
30
0
10
-49.929582805533023
20
-90.968388828900117
30
0
10
-46.831846128937073
20
-91.827030709126433
30
0
10
-43.771507510715153
20
-92.773545170532287
30
0
10
-40.737151967214558
20
-93.82575438624832
30
0
10
-37.720597985169547
20
-94.996902225663121
30
0
10
-34.720884200394636
20
-96.286492726883338
30
0
10
-31.755214059873985
20
-97.676892415373189
30
0
10
-28.853608811954629
20
-99.139519384914067
30
0
10
-26.060049961702028
20
-100.63714725540865
30
0
10
-23.425787018397539
20
-102.12982681998078
30
0
10
-21.018843364690127
20
-103.57400346534084
30
0
10
-18.884758594691831
20
-104.9415686128165
30
0
10
-17.410430952921601
20
-105.96439427487672
30
0
10
-16.438176673017331
20
-106.68964161775435
30
0
10
-15.849130704002039
20
-107.1545989932948
30
0
10
-15.569391586197286
20
-107.38244128763282
30
0
0
LINE
5
115
100
AcDbEntity
8
0
100
AcDbLine
10
-15.569391586197286
20
-107.38244128763282
30
0
11
-5.0693915861983019
21
-89.195907808151162
31
0
0
CIRCLE
5
116
100
AcDbEntity
8
0
100
AcDbCircle
10
-19.912658325913746
20
-93.905199951626031
30
0
40
2.5000000000000044
210
0
220
-0
230
1
0
CIRCLE
5
117
100
AcDbEntity
8
0
100
AcDbCircle
10
-37.232419511440924
20
-85.534726307312141
30
0
40
2.4999999999999956
210
0
220
-0
230
1
0
LWPOLYLINE
5
118
100
AcDbEntity
8
0
100
AcDbPolyline
90
4
70
1
43
0.0
10
-23.069391586202332
20
-74.195907808156619
10
-23.069391586202293
20
-61.69590780815664
10
-6.0693915862023138
20
-61.695907808156562
10
-6.0693915862026406
20
-74.19590780815706
0
CIRCLE
5
119
100
AcDbEntity
8
0
100
AcDbCircle
10
-55.739274180270968
20
-80.287318679805182
30
0
40
2.5
210
0
220
-0
230
1
0
CIRCLE
5
120
100
AcDbEntity
8
0
100
AcDbCircle
10
-74.874937696760099
20
-78.49127231078954
30
0
40
2.5
210
0
220
-0
230
1
0
CIRCLE
5
121
100
AcDbEntity
8
0
100
AcDbCircle
10
-17.469391586202313
20
-56.695907808160719
30
0
40
1.100000000000001
210
0
220
-0
230
1
0
CIRCLE
5
122
100
AcDbEntity
8
0
100
AcDbCircle
10
-12.090311843559526
20
-76.295708855089146
30
0
40
1.100000000000001
210
0
220
-0
230
1
0
LINE
5
123
100
AcDbEntity
8
0
100
AcDbLine
10
-15.569391586197286
20
-107.38244128763282
30
0
11
-5.0693915861983019
21
-89.195907808151162
31
0
0
SPLINE
5
124
100
AcDbEntity
8
0
100
AcDbSpline
70
4
71
5
72
36
73
30
74
0
42
0.000000001
43
0.0000000001
44
0.0000000001
40
0
40
0
40
0
40
0
40
0
40
0
40
0.040000000000000001
40
0.080000000000000002
40
0.12
40
0.16
40
0.20000000000000001
40
0.24000000000000002
40
0.28000000000000003
40
0.32000000000000001
40
0.35999999999999999
40
0.39999999999999997
40
0.43999999999999995
40
0.47999999999999993
40
0.51999999999999991
40
0.55999999999999994
40
0.59999999999999998
40
0.64000000000000001
40
0.68000000000000005
40
0.72000000000000008
40
0.76000000000000012
40
0.80000000000000016
40
0.84000000000000019
40
0.88000000000000023
40
0.92000000000000026
40
0.9600000000000003
40
1
40
1
40
1
40
1
40
1
40
1
41
1
41
1
41
1
41
1
41
1
41
1
41
1
41
1
41
1
41
1
41
1
41
1
41
1
41
1
41
1
41
1
41
1
41
1
41
1
41
1
41
1
41
1
41
1
41
1
41
1
41
1
41
1
41
1
41
1
41
1
10
-15.569391586197286
20
-107.38244128763282
30
0
10
-15.849130704002039
20
-107.1545989932948
30
0
10
-16.438176673017331
20
-106.68964161775435
30
0
10
-17.410430952921601
20
-105.96439427487672
30
0
10
-18.884758594691831
20
-104.9415686128165
30
0
10
-21.018843364690127
20
-103.57400346534084
30
0
10
-23.425787018397539
20
-102.12982681998078
30
0
10
-26.060049961702028
20
-100.63714725540865
30
0
10
-28.853608811954629
20
-99.139519384914067
30
0
10
-31.755214059873985
20
-97.676892415373189
30
0
10
-34.720884200394636
20
-96.286492726883338
30
0
10
-37.720597985169547
20
-94.996902225663121
30
0
10
-40.737151967214558
20
-93.82575438624832
30
0
10
-43.771507510715153
20
-92.773545170532287
30
0
10
-46.831846128937073
20
-91.827030709126433
30
0
10
-49.929582805533023
20
-90.968388828900117
30
0
10
-53.077875919958082
20
-90.184268104980205
30
0
10
-56.286766667716179
20
-89.470613994286936
30
0
10
-59.564993498278511
20
-88.849208531789088
30
0
10
-62.905643217181655
20
-88.354718922672333
30
0
10
-66.268667328594589
20
-87.991114997961233
30
0
10
-69.597869278091338
20
-87.753254133509685
30
0
10
-72.825619250935105
20
-87.627488477010843
30
0
10
-75.884131568133711
20
-87.599545191846772
30
0
10
-78.710062123563873
20
-87.662424952696597
30
0
10
-81.266710563708131
20
-87.812845709897857
30
0
10
-83.083716804304117
20
-88.001048721392863
30
0
10
-84.316260603766409
20
-88.179865678683328
30
0
10
-85.080243750810297
20
-88.315761920510624
30
0
10
-85.447806673511778
20
-88.387881933195786
30
0
0
ARC
5
125
100
AcDbEntity
8
0
100
AcDbCircle
10
157.97288501471283
20
-50.58486733223269
30
0
40
246.33859026732773
210
0
220
0
230
1
100
AcDbArc
50
184.70650602162328
51
188.82746739446131
0
ARC
5
126
100
AcDbEntity
8
0
100
AcDbCircle
10
-84.708726294713358
20
-69.377646694563055
30
0
40
2.2000000000000117
210
0
220
0
230
1
100
AcDbArc
50
220.26394499207828
51
319.51975749281729
0
LINE
5
127
100
AcDbEntity
8
0
100
AcDbLine
10
-68.849827326574982
20
-66.552562753886548
30
0
11
-69.549826260414207
21
-66.551341024030407
31
0
0
ARC
5
128
100
AcDbEntity
8
0
100
AcDbCircle
10
-73.685411719313777
20
-181.32130397259903
30
0
40
114.87056558302734
210
0
220
-0
230
1
100
AcDbArc
50
67.577204320135536
51
87.587367408901073
0
LINE
5
129
100
AcDbEntity
8
0
100
AcDbLine
10
-29.869391586202365
20
-28.411907808156617
30
0
11
-29.869391586202376
21
-75.135602406619043
31
0
0
LINE
5
130
100
AcDbEntity
8
0
100
AcDbLine
10
-5.0693915862023609
20
-28.411907808156617
30
0
11
-29.869391586202365
21
-28.411907808156617
31
0
0
LINE
5
131
100
AcDbEntity
8
0
100
AcDbLine
10
-5.0693915861983019
20
-89.195907808151162
30
0
11
-5.0693915862023609
21
-28.411907808156617
31
0
0
LINE
5
132
100
AcDbEntity
8
0
100
AcDbLine
10
-69.549826260414207
20
-66.551341024030407
30
0
11
-69.557296198590052
21
-70.831295985198125
31
0
0
LINE
5
133
100
AcDbEntity
8
0
100
AcDbLine
10
-69.557296198590052
20
-70.831295985198125
30
0
11
-83.035340576972516
21
-70.805855446693158
31
0
0
LINE
5
134
100
AcDbEntity
8
0
100
AcDbLine
10
-86.387491711900907
20
-70.799528079930738
30
0
11
-87.535070285488899
21
-70.79736196323978
31
0
0
LINE
5
135
100
AcDbEntity
8
0
100
AcDbLine
10
-86.387491711900921
20
-70.799528079930724
30
0
11
-87.535070285488942
21
-70.797361963239837
31
0
0
LINE
5
136
100
AcDbEntity
8
0
100
AcDbLine
10
-69.557296198590052
20
-70.831295985198125
30
0
11
-83.035340576972516
21
-70.805855446693158
31
0
0
LINE
5
137
100
AcDbEntity
8
0
100
AcDbLine
10
-69.549826260414207
20
-66.551341024030407
30
0
11
-69.557296198590052
21
-70.831295985198125
31
0
0
ENDSEC
0
SECTION
2
OBJECTS
0
DICTIONARY
5
C
100
AcDbDictionary
3
ACAD_GROUP
350
D
3
ACAD_MLINESTYLE
350
17
0
DICTIONARY
5
D
100
AcDbDictionary
0
DICTIONARY
5
1A
330
C
100
AcDbDictionary
0
DICTIONARY
5
17
100
AcDbDictionary
0
ENDSEC
0
EOF
