0
SECTION
2
HEADER
9
$INSUNITS
70
4
9
$ACADVER
1
AC1014
9
$HANDSEED
5
FFFF
0
ENDSEC
0
SECTION
2
TABLES
0
TABLE
2
VPORT
5
8
100
AcDbSymbolTable
0
ENDTAB
0
TABLE
2
LTYPE
5
5
100
AcDbSymbolTable
0
LTYPE
5
14
100
AcDbSymbolTableRecord
100
AcDbLinetypeTableRecord
2
BYBLOCK
70
0
0
LTYPE
5
15
100
AcDbSymbolTableRecord
100
AcDbLinetypeTableRecord
2
BYLAYER
70
0
0
LTYPE
5
16
100
AcDbSymbolTableRecord
100
AcDbLinetypeTableRecord
2
DASHED
70
0
3
Dashed __ __ __ __ __ __ __ __ __ __ __ __ __ _
72
65
73
2
40
0.75
49
0.5
74
0
49
-0.25
74
0
0
ENDTAB
0
TABLE
2
LAYER
5
2
100
AcDbSymbolTable
70
2
0
LAYER
5
50
100
AcDbSymbolTableRecord
100
AcDbLayerTableRecord
2
0
70
0
62
7
6
CONTINUOUS
0
ENDTAB
0
TABLE
2
STYLE
5
3
100
AcDbSymbolTable
70
1
0
STYLE
5
11
100
AcDbSymbolTableRecord
100
AcDbTextStyleTableRecord
2
STANDARD
70
0
0
ENDTAB
0
TABLE
2
VIEW
5
6
100
AcDbSymbolTable
70
0
0
ENDTAB
0
TABLE
2
UCS
5
7
100
AcDbSymbolTable
70
0
0
ENDTAB
0
TABLE
2
APPID
5
9
100
AcDbSymbolTable
70
2
0
APPID
5
12
100
AcDbSymbolTableRecord
100
AcDbRegAppTableRecord
2
ACAD
70
0
0
ENDTAB
0
TABLE
2
DIMSTYLE
5
A
100
AcDbSymbolTable
70
1
0
ENDTAB
0
TABLE
2
BLOCK_RECORD
5
1
100
AcDbSymbolTable
70
1
0
BLOCK_RECORD
5
1F
100
AcDbSymbolTableRecord
100
AcDbBlockTableRecord
2
*MODEL_SPACE
0
BLOCK_RECORD
5
1B
100
AcDbSymbolTableRecord
100
AcDbBlockTableRecord
2
*PAPER_SPACE
0
ENDTAB
0
ENDSEC
0
SECTION
2
BLOCKS
0
BLOCK
5
20
100
AcDbEntity
100
AcDbBlockBegin
2
*MODEL_SPACE
0
ENDBLK
5
21
100
AcDbEntity
100
AcDbBlockEnd
0
BLOCK
5
1C
100
AcDbEntity
100
AcDbBlockBegin
2
*PAPER_SPACE
0
ENDBLK
5
1D
100
AcDbEntity
100
AcDbBlockEnd
0
ENDSEC
0
SECTION
2
ENTITIES
0
ARC
5
100
100
AcDbEntity
8
0
100
AcDbCircle
10
-68.499998468905758
20
-51.499998848885312
30
0
40
2.6499999999999995
210
0
220
0
230
1
100
AcDbArc
50
-34.474414800201245
51
124.47442476595289
0
LINE
5
101
100
AcDbEntity
8
0
100
AcDbLine
10
-66.315394031792579
20
-53
30
0
11
-51.999999999999993
21
-53
31
0
0
LINE
5
102
100
AcDbEntity
8
0
100
AcDbLine
10
-51.999999999999993
20
-53
30
0
11
-51.999999999999993
21
-55.587867965644023
31
0
0
LINE
5
103
100
AcDbEntity
8
0
100
AcDbLine
10
-50.587867965644016
20
-57
30
0
11
-33.412132034355956
21
-57
31
0
0
LINE
5
104
100
AcDbEntity
8
0
100
AcDbLine
10
-31.999999999999989
20
-55.587867965644023
30
0
11
-31.999999999999989
21
-55
31
0
0
LINE
5
105
100
AcDbEntity
8
0
100
AcDbLine
10
-31.999999999999989
20
-55
30
0
11
-16.665205890719125
21
-55
31
0
0
ARC
5
106
100
AcDbEntity
8
0
100
AcDbCircle
10
-14.499999999999989
20
-53.472131075387964
30
0
40
2.6499999999999941
210
0
220
-0
230
1
100
AcDbArc
50
10.262758782265054
51
215.20855437882437
0
LINE
5
107
100
AcDbEntity
8
0
100
AcDbLine
10
-11.892397222034569
20
-53
30
0
11
-0.41213203435595647
21
-53
31
0
0
LINE
5
108
100
AcDbEntity
8
0
100
AcDbLine
10
1.0000000000000118
20
-51.587867965644023
30
0
11
1.0000000000000058
21
-1.2385338404785706
31
0
0
ARC
5
109
100
AcDbEntity
8
0
100
AcDbCircle
10
-1.0000000149011616
20
0.50000000745058304
30
0
40
2.6500000000000021
210
0
220
0
230
1
100
AcDbArc
50
190.87571665866346
51
319.0006468408838
0
LINE
5
110
100
AcDbEntity
8
0
100
AcDbLine
10
-3.6024027494043054
20
1.0408340855860843e-14
30
0
11
-31.500000000000004
21
4.4408920985006262e-15
31
0
0
LINE
5
111
100
AcDbEntity
8
0
100
AcDbLine
10
-62
20
4.4408920985006262e-15
30
0
11
-61.999999999999986
21
22.390778003648251
31
0
0
ARC
5
112
100
AcDbEntity
8
0
100
AcDbCircle
10
-63.299998585134773
20
24.699999447911996
30
0
40
2.649999999999999
210
0
220
0
230
1
100
AcDbArc
50
150.62219391833676
51
299.37775727813914
0
LINE
5
113
100
AcDbEntity
8
0
100
AcDbLine
10
-65.60921892208205
20
25.999999999999996
30
0
11
-82.587867965644008
21
25.999999999999996
31
0
0
LINE
5
114
100
AcDbEntity
8
0
100
AcDbLine
10
-83.999999999999986
20
24.587867965644037
30
0
11
-83.999999999999986
21
-42.587867965644037
31
0
0
LINE
5
115
100
AcDbEntity
8
0
100
AcDbLine
10
-82.587867965644023
20
-44
30
0
11
-69.999999999999986
21
-43.999999999999993
31
0
0
LINE
5
116
100
AcDbEntity
8
0
100
AcDbLine
10
-69.999999999999986
20
-43.999999999999993
30
0
11
-69.999999999999986
21
-49.315394672675133
31
0
0
CIRCLE
5
117
100
AcDbEntity
8
0
100
AcDbCircle
10
-9.5000000000000018
20
-42.5
30
0
40
2.75
210
0
220
0
230
1
0
CIRCLE
5
118
100
AcDbEntity
8
0
100
AcDbCircle
10
-9.5000000000000018
20
-26.5
30
0
40
2.75
210
0
220
0
230
1
0
CIRCLE
5
119
100
AcDbEntity
8
0
100
AcDbCircle
10
-9.5000000000000018
20
-10.499999999999998
30
0
40
2.75
210
0
220
0
230
1
0
CIRCLE
5
120
100
AcDbEntity
8
0
100
AcDbCircle
10
-25.500000000000007
20
-44.5
30
0
40
2.7500000000000013
210
0
220
0
230
1
0
CIRCLE
5
121
100
AcDbEntity
8
0
100
AcDbCircle
10
-25.500000000000007
20
-28.5
30
0
40
2.7500000000000013
210
0
220
0
230
1
0
CIRCLE
5
122
100
AcDbEntity
8
0
100
AcDbCircle
10
-25.500000000000007
20
-12.5
30
0
40
2.7500000000000013
210
0
220
0
230
1
0
CIRCLE
5
123
100
AcDbEntity
8
0
100
AcDbCircle
10
-41.500000000000014
20
-46.5
30
0
40
2.7500000000000013
210
0
220
0
230
1
0
CIRCLE
5
124
100
AcDbEntity
8
0
100
AcDbCircle
10
-41.500000000000014
20
-30.500000000000004
30
0
40
2.7500000000000013
210
0
220
0
230
1
0
CIRCLE
5
125
100
AcDbEntity
8
0
100
AcDbCircle
10
-41.500000000000014
20
-14.500000000000002
30
0
40
2.7500000000000013
210
0
220
0
230
1
0
CIRCLE
5
126
100
AcDbEntity
8
0
100
AcDbCircle
10
-57.500000000000014
20
-42.5
30
0
40
2.7500000000000018
210
0
220
0
230
1
0
CIRCLE
5
127
100
AcDbEntity
8
0
100
AcDbCircle
10
-57.500000000000014
20
-26.5
30
0
40
2.7500000000000018
210
0
220
0
230
1
0
CIRCLE
5
128
100
AcDbEntity
8
0
100
AcDbCircle
10
-57.500000000000014
20
-10.499999999999998
30
0
40
2.7500000000000018
210
0
220
0
230
1
0
CIRCLE
5
129
100
AcDbEntity
8
0
100
AcDbCircle
10
-73.500000000000014
20
-32.5
30
0
40
2.7499999999999991
210
0
220
0
230
1
0
CIRCLE
5
130
100
AcDbEntity
8
0
100
AcDbCircle
10
-73.500000000000014
20
-16.5
30
0
40
2.7499999999999991
210
0
220
0
230
1
0
CIRCLE
5
131
100
AcDbEntity
8
0
100
AcDbCircle
10
-73.500000000000014
20
-0.49999999999999822
30
0
40
2.7499999999999991
210
0
220
0
230
1
0
CIRCLE
5
132
100
AcDbEntity
8
0
100
AcDbCircle
10
-73.500000000000014
20
15.500000000000004
30
0
40
2.7499999999999991
210
0
220
0
230
1
0
LINE
5
133
100
AcDbEntity
8
0
100
AcDbLine
10
-51.999999999999993
20
-55.587867965644023
30
0
11
-50.587867965644016
21
-57
31
0
0
LINE
5
134
100
AcDbEntity
8
0
100
AcDbLine
10
-33.412132034355956
20
-57
30
0
11
-31.999999999999989
21
-55.587867965644023
31
0
0
LINE
5
135
100
AcDbEntity
8
0
100
AcDbLine
10
-0.41213203435595647
20
-53
30
0
11
1.0000000000000118
21
-51.587867965644023
31
0
0
LINE
5
136
100
AcDbEntity
8
0
100
AcDbLine
10
-82.587867965644008
20
25.999999999999996
30
0
11
-83.999999999999986
21
24.587867965644037
31
0
0
LINE
5
137
100
AcDbEntity
8
0
100
AcDbLine
10
-83.999999999999986
20
-42.587867965644037
30
0
11
-82.587867965644023
21
-44
31
0
0
LINE
5
138
100
AcDbEntity
8
0
100
AcDbLine
10
-31.500000000000004
20
4.4408920985006262e-15
30
0
11
-31.500000000000004
21
-5.0000000000000018
31
0
0
LINE
5
139
100
AcDbEntity
8
0
100
AcDbLine
10
-46.5
20
-7.0000001043081284
30
0
11
-46.5
21
4.4408920985006262e-15
31
0
0
LINE
5
140
100
AcDbEntity
8
0
100
AcDbLine
10
-46.5
20
4.4408920985006262e-15
30
0
11
-62
21
4.4408920985006262e-15
31
0
0
LINE
5
141
100
AcDbEntity
8
0
100
AcDbLine
10
-46.5
20
-7.0000001043081284
30
0
11
-33.000000491738319
21
-7.0000001043081284
31
0
0
LINE
5
142
100
AcDbEntity
8
0
100
AcDbLine
10
-33.000000491738319
20
-7.0000001043081284
30
0
11
-33.000000491738319
21
-5.000000074505806
31
0
0
LINE
5
143
100
AcDbEntity
8
0
100
AcDbLine
10
-33.000000491738319
20
-5.000000074505806
30
0
11
-31.500000000000004
21
-5.0000000000000018
31
0
0
ENDSEC
0
SECTION
2
OBJECTS
0
DICTIONARY
5
C
100
AcDbDictionary
3
ACAD_GROUP
350
D
3
ACAD_MLINESTYLE
350
17
0
DICTIONARY
5
D
100
AcDbDictionary
0
DICTIONARY
5
1A
330
C
100
AcDbDictionary
0
DICTIONARY
5
17
100
AcDbDictionary
0
ENDSEC
0
EOF
