0
SECTION
2
HEADER
9
$INSUNITS
70
4
9
$ACADVER
1
AC1014
9
$HANDSEED
5
FFFF
0
ENDSEC
0
SECTION
2
TABLES
0
TABLE
2
VPORT
5
8
100
AcDbSymbolTable
0
ENDTAB
0
TABLE
2
LTYPE
5
5
100
AcDbSymbolTable
0
LTYPE
5
14
100
AcDbSymbolTableRecord
100
AcDbLinetypeTableRecord
2
BYBLOCK
70
0
0
LTYPE
5
15
100
AcDbSymbolTableRecord
100
AcDbLinetypeTableRecord
2
BYLAYER
70
0
0
LTYPE
5
16
100
AcDbSymbolTableRecord
100
AcDbLinetypeTableRecord
2
DASHED
70
0
3
Dashed __ __ __ __ __ __ __ __ __ __ __ __ __ _
72
65
73
2
40
0.75
49
0.5
74
0
49
-0.25
74
0
0
ENDTAB
0
TABLE
2
LAYER
5
2
100
AcDbSymbolTable
70
2
0
LAYER
5
50
100
AcDbSymbolTableRecord
100
AcDbLayerTableRecord
2
0
70
0
62
7
6
CONTINUOUS
0
ENDTAB
0
TABLE
2
STYLE
5
3
100
AcDbSymbolTable
70
1
0
STYLE
5
11
100
AcDbSymbolTableRecord
100
AcDbTextStyleTableRecord
2
STANDARD
70
0
0
ENDTAB
0
TABLE
2
VIEW
5
6
100
AcDbSymbolTable
70
0
0
ENDTAB
0
TABLE
2
UCS
5
7
100
AcDbSymbolTable
70
0
0
ENDTAB
0
TABLE
2
APPID
5
9
100
AcDbSymbolTable
70
2
0
APPID
5
12
100
AcDbSymbolTableRecord
100
AcDbRegAppTableRecord
2
ACAD
70
0
0
ENDTAB
0
TABLE
2
DIMSTYLE
5
A
100
AcDbSymbolTable
70
1
0
ENDTAB
0
TABLE
2
BLOCK_RECORD
5
1
100
AcDbSymbolTable
70
1
0
BLOCK_RECORD
5
1F
100
AcDbSymbolTableRecord
100
AcDbBlockTableRecord
2
*MODEL_SPACE
0
BLOCK_RECORD
5
1B
100
AcDbSymbolTableRecord
100
AcDbBlockTableRecord
2
*PAPER_SPACE
0
ENDTAB
0
ENDSEC
0
SECTION
2
BLOCKS
0
BLOCK
5
20
100
AcDbEntity
100
AcDbBlockBegin
2
*MODEL_SPACE
0
ENDBLK
5
21
100
AcDbEntity
100
AcDbBlockEnd
0
BLOCK
5
1C
100
AcDbEntity
100
AcDbBlockBegin
2
*PAPER_SPACE
0
ENDBLK
5
1D
100
AcDbEntity
100
AcDbBlockEnd
0
ENDSEC
0
SECTION
2
ENTITIES
0
LINE
5
100
100
AcDbEntity
8
0
100
AcDbLine
10
-26.031561600226812
20
20.762742460151962
30
0
11
-16.154678194275434
21
22.32708711055427
31
0
6
DASHED
0
LINE
5
101
100
AcDbEntity
8
0
100
AcDbLine
10
-14.000109770589923
20
38.838531982912158
30
0
11
-11.383626416241883
21
24.068494242390987
31
0
6
DASHED
0
LINE
5
102
100
AcDbEntity
8
0
100
AcDbLine
10
-11.383626416241883
20
24.068494242390987
30
0
11
-26.153664156763053
21
21.452010888042953
31
0
6
DASHED
0
LINE
5
103
100
AcDbEntity
8
0
100
AcDbLine
10
-26.153664156763053
20
21.452010888042953
30
0
11
-28.770147511111102
21
36.222048628564124
31
0
6
DASHED
0
LINE
5
104
100
AcDbEntity
8
0
100
AcDbLine
10
-28.770147511111102
20
36.222048628564124
30
0
11
-14.000109770589923
21
38.838531982912158
31
0
6
DASHED
0
LINE
5
105
100
AcDbEntity
8
0
100
AcDbLine
10
2.4488475196502435
20
44.738742092203658
30
0
11
7.5790258854340919
21
30.643307727302265
31
0
6
DASHED
0
LINE
5
106
100
AcDbEntity
8
0
100
AcDbLine
10
7.5790258854340919
20
30.643307727302265
30
0
11
-6.5164084794673061
21
25.513129361518409
31
0
6
DASHED
0
LINE
5
107
100
AcDbEntity
8
0
100
AcDbLine
10
-6.5164084794673061
20
25.513129361518409
30
0
11
-11.646586845251157
21
39.608563726419803
31
0
6
DASHED
0
LINE
5
108
100
AcDbEntity
8
0
100
AcDbLine
10
-11.646586845251157
20
39.608563726419803
30
0
11
2.4488475196502435
21
44.738742092203658
31
0
6
DASHED
0
LINE
5
109
100
AcDbEntity
8
0
100
AcDbLine
10
24.856719132161015
20
39.695802364573105
30
0
11
11.689640551717574
21
32.510536770565622
31
0
6
DASHED
0
LINE
5
110
100
AcDbEntity
8
0
100
AcDbLine
10
11.689640551717574
20
32.510536770565622
30
0
11
4.5043749577100911
21
45.677615351009059
31
0
6
DASHED
0
LINE
5
111
100
AcDbEntity
8
0
100
AcDbLine
10
4.5043749577100911
20
45.677615351009059
30
0
11
17.67145353815382
21
52.862880945016705
31
0
6
DASHED
0
LINE
5
112
100
AcDbEntity
8
0
100
AcDbLine
10
17.67145353815382
20
52.862880945016705
30
0
11
24.856719132161015
21
39.695802364573105
31
0
6
DASHED
0
CIRCLE
5
113
100
AcDbEntity
8
0
100
AcDbCircle
10
17.027187967044817
20
5.9994397672933921
30
0
40
1.100000000000001
210
0
220
-0
230
1
0
CIRCLE
5
114
100
AcDbEntity
8
0
100
AcDbCircle
10
23.427187967047782
20
26.499439767292408
30
0
40
1.1000000000000032
210
0
220
-0
230
1
0
LINE
5
115
100
AcDbEntity
8
0
100
AcDbLine
10
28.927187967050397
20
0.9994397672924249
30
0
11
28.927187967050397
21
10.999439767292426
31
0
0
LINE
5
116
100
AcDbEntity
8
0
100
AcDbLine
10
8.9271879670504006
20
10.999439767292426
30
0
11
8.9271879670504006
21
23.499439767292422
31
0
0
LINE
5
117
100
AcDbEntity
8
0
100
AcDbLine
10
28.927187967050397
20
23.499439767292426
30
0
11
28.927187967050362
21
38.499439767292401
31
0
0
LINE
5
118
100
AcDbEntity
8
0
100
AcDbLine
10
28.927187967050362
20
38.499439767292401
30
0
11
18.867816135440542
21
56.933349779907026
31
0
0
SPLINE
5
119
100
AcDbEntity
8
0
100
AcDbSpline
70
4
71
5
72
31
73
25
74
0
42
0.000000001
43
0.0000000001
44
0.0000000001
40
0
40
0
40
0
40
0
40
0
40
0
40
0.050000000000000003
40
0.10000000000000001
40
0.15000000000000002
40
0.20000000000000001
40
0.25
40
0.29999999999999999
40
0.34999999999999998
40
0.39999999999999997
40
0.44999999999999996
40
0.49999999999999994
40
0.54999999999999993
40
0.59999999999999998
40
0.65000000000000002
40
0.70000000000000007
40
0.75000000000000011
40
0.80000000000000016
40
0.8500000000000002
40
0.90000000000000024
40
0.95000000000000029
40
1
40
1
40
1
40
1
40
1
40
1
41
1
41
1
41
1
41
1
41
1
41
1
41
1
41
1
41
1
41
1
41
1
41
1
41
1
41
1
41
1
41
1
41
1
41
1
41
1
41
1
41
1
41
1
41
1
41
1
41
1
10
18.867816135440542
20
56.933349779907026
30
0
10
18.229335566532669
20
56.48993168691851
30
0
10
16.951780890101404
20
55.616655152096826
30
0
10
15.033668273047384
20
54.347419092684007
30
0
10
12.472608936004788
20
52.736795616664736
30
0
10
9.265140584992924
20
50.861453021609407
30
0
10
6.0511215221340446
20
49.126003160312202
30
0
10
2.8298556531541492
20
47.531626024745989
30
0
10
-0.39971893648263357
20
46.077797768586699
30
0
10
-3.6390784750736143
20
44.760880000788241
30
0
10
-6.8903616761555373
20
43.575251258886837
30
0
10
-10.156656663470843
20
42.514843874575277
30
0
10
-13.442280408408678
20
41.574393864270256
30
0
10
-16.753057019169553
20
40.750662559833053
30
0
10
-20.096624186484355
20
40.04360534795871
30
0
10
-23.481557709367515
20
39.455422048889687
30
0
10
-26.916429165500219
20
38.989455802932149
30
0
10
-30.408887859642391
20
38.649090928740677
30
0
10
-33.964582002888136
20
38.436416855929338
30
0
10
-37.58631278389845
20
38.35114887917522
30
0
10
-41.275028396353321
20
38.391769931649677
30
0
10
-44.279431691127691
20
38.523393737402813
30
0
10
-46.56251171870786
20
38.677115477213512
30
0
10
-48.097745420167669
20
38.803942989070947
30
0
10
-48.868657377793561
20
38.873443360762714
30
0
0
ARC
5
120
100
AcDbEntity
8
0
100
AcDbCircle
10
149.83579140622925
20
6.4254190124494741
30
0
40
201.33636594185131
210
0
220
0
230
1
100
AcDbArc
50
170.72557778325427
51
175.80648365272299
0
LINE
5
121
100
AcDbEntity
8
0
100
AcDbLine
10
-50.961548471925759
20
21.148209119212076
30
0
11
-49.649980544620206
21
21.148209119212098
31
0
0
ARC
5
122
100
AcDbEntity
8
0
100
AcDbCircle
10
-48.025911044740212
20
19.24757810305994
30
0
40
2.5000000000000036
210
0
220
-0
230
1
100
AcDbArc
50
49.486454539121738
51
130.51354546087632
0
LINE
5
123
100
AcDbEntity
8
0
100
AcDbLine
10
-46.401841544860154
20
21.148209119212041
30
0
11
-46.170147511111104
21
21.14820911921203
31
0
0
LINE
5
124
100
AcDbEntity
8
0
100
AcDbLine
10
-46.170147511111104
20
21.14820911921203
30
0
11
-46.170147511111104
21
36.148209119212027
31
0
6
DASHED
0
LINE
5
125
100
AcDbEntity
8
0
100
AcDbLine
10
-46.170147511111104
20
36.148209119212027
30
0
11
-31.170147511111104
21
36.148209119212027
31
0
6
DASHED
0
LINE
5
126
100
AcDbEntity
8
0
100
AcDbLine
10
-31.170147511111104
20
36.148209119212027
30
0
11
-31.170147511111104
21
21.14820911921203
31
0
6
DASHED
0
LINE
5
127
100
AcDbEntity
8
0
100
AcDbLine
10
-31.170147511111104
20
21.14820911921203
30
0
11
-31.872812032948914
21
21.14820911921203
31
0
6
DASHED
0
LINE
5
128
100
AcDbEntity
8
0
100
AcDbLine
10
-31.872812032948914
20
21.14820911921203
30
0
11
-31.872812032949614
21
15.999439767292429
31
0
0
ARC
5
129
100
AcDbEntity
8
0
100
AcDbCircle
10
-36.543887434681295
20
122.01927907508298
30
0
40
106.12268971458644
210
-0
220
0
230
1
100
AcDbArc
50
272.52273477722201
51
292.53488064108137
0
LINE
5
130
100
AcDbEntity
8
0
100
AcDbLine
10
4.1271879670502498
20
23.999439767292543
30
0
11
4.1271879670503875
21
0.9994397672924249
31
0
0
LINE
5
131
100
AcDbEntity
8
0
100
AcDbLine
10
5.9771879670504511
20
-24.224942268769869
30
0
11
3.9771879670504511
21
-24.224942268769865
31
0
0
LINE
5
132
100
AcDbEntity
8
0
100
AcDbLine
10
4.1271879670503875
20
0.9994397672924249
30
0
11
4.1271879670503875
21
-24.224942268769865
31
0
0
LINE
5
133
100
AcDbEntity
8
0
100
AcDbLine
10
29.077187967050367
20
-24.224942268769865
30
0
11
27.077187967050364
21
-24.224942268769865
31
0
0
LINE
5
134
100
AcDbEntity
8
0
100
AcDbLine
10
28.927187967050397
20
0.9994397672924249
30
0
11
28.927187967050397
21
-24.224942268769865
31
0
0
LINE
5
135
100
AcDbEntity
8
0
100
AcDbLine
10
4.1271879670503875
20
-24.224942268769865
30
0
11
28.927187967050397
21
-24.224942268769865
31
0
0
LINE
5
136
100
AcDbEntity
8
0
100
AcDbLine
10
28.927187967050397
20
23.499439767292426
30
0
11
28.927187967050397
21
10.999439767292426
31
0
0
CIRCLE
5
137
100
AcDbEntity
8
0
100
AcDbCircle
10
14.680547044935697
20
42.68670885779116
30
0
40
2.7499999999999987
210
0
220
0
230
1
0
CIRCLE
5
138
100
AcDbEntity
8
0
100
AcDbCircle
10
-2.0337804799085326
20
35.125935726861037
30
0
40
2.7499999999999991
210
0
220
0
230
1
0
LINE
5
139
100
AcDbEntity
8
0
100
AcDbLine
10
-31.872812032948914
20
21.14820911921203
30
0
11
-46.170147511111104
21
21.14820911921203
31
0
0
CIRCLE
5
140
100
AcDbEntity
8
0
100
AcDbCircle
10
-38.670147511111104
20
28.64820911921203
30
0
40
2.7499999999999991
210
0
220
0
230
1
0
CIRCLE
5
141
100
AcDbEntity
8
0
100
AcDbCircle
10
-20.076886963676486
20
30.145271435477557
30
0
40
2.75
210
0
220
0
230
1
0
ENDSEC
0
SECTION
2
OBJECTS
0
DICTIONARY
5
C
100
AcDbDictionary
3
ACAD_GROUP
350
D
3
ACAD_MLINESTYLE
350
17
0
DICTIONARY
5
D
100
AcDbDictionary
0
DICTIONARY
5
1A
330
C
100
AcDbDictionary
0
DICTIONARY
5
17
100
AcDbDictionary
0
ENDSEC
0
EOF
